# AST/ASF file generated using VICON BodyLanguage
# -----------------------------------------------
:version 1.10
:name VICON
:units
  mass 1.0
  length 0.45
  angle deg
:documentation
   .ast/.asf automatically generated from VICON data using
   VICON BodyBuilder and BodyLanguage model FoxedUp or BRILLIANT.MOD
:root
   order TX TY TZ RX RY RZ
   axis XYZ
   position 0 0 0  
   orientation 0 0 0 
:bonedata
  begin
     id 1 
     name lhipjoint
     direction 0.623415 -0.642378 0.445763 
     length 2.49859 
     axis 0 0 0  XYZ
  end
  begin
     id 2 
     name lfemur
     direction 0.34202 -0.939693 0  
     length 6.69689  
     axis 0 0 20  XYZ
    dof rx ry rz
    limits (-160.0 20.0)
           (-70.0 70.0)
           (-60.0 70.0)
  end
  begin
     id 3 
     name ltibia
     direction 0.34202 -0.939693 0   
     length 7.37574   
     axis 0 0 20   XYZ
    dof rx
    limits (-10.0 170.0)
  end
  begin
     id 4 
     name lfoot
     direction 0.084323 -0.231675 0.969132   
     length 2.09111   
     axis -90 7.62852e-016 20   XYZ
    dof rx rz
    limits (-45.0 90.0)
           (-70.0 20.0)
  end
  begin
     id 5 
     name ltoes
     direction 1.5357e-011 -4.21957e-011 1   
     length 1.04989   
     axis -90 7.62852e-016 20   XYZ
    dof rx
    limits (-90.0 20.0)
  end
  begin
     id 6 
     name rhipjoint
     direction -0.605402 -0.653903 0.45376   
     length 2.45455  
     axis 0 0 0  XYZ 
  end
  begin
     id 7 
     name rfemur
     direction -0.34202 -0.939693 0   
     length 6.64523   
     axis 0 0 -20   XYZ
    dof rx ry rz
    limits (-160.0 20.0)
           (-70.0 70.0)
           (-70.0 60.0)
  end
  begin
     id 8 
     name rtibia
     direction -0.34202 -0.939693 0   
     length 7.3339   
     axis 0 0 -20   XYZ
    dof rx
    limits (-10.0 170.0)
 end
 begin
     id 9 
     name rfoot
     direction -0.120854 -0.332043 0.93549   
     length 2.23135  
     axis -90 -7.62852e-016 -20   XYZ
    dof rx rz
    limits (-45.0 90.0)
           (-20.0 70.0)
  end
  begin
     id 10 
     name rtoes
     direction -1.53563e-011 -4.21914e-011 1   
     length 1.10614   
     axis -90 -7.62852e-016 -20   XYZ
    dof rx
    limits (-90.0 20.0)
  end
  begin
     id 11 
     name lowerback
     direction 0.0319682 0.998615 -0.0417941   
     length 2.02718   
     axis 0 0 0   XYZ
    dof rx ry rz
    limits (-20.0 45.0)
           (-30.0 30.0)
           (-30.0 30.0)
  end
  begin
     id 12 
     name upperback
     direction 7.63181e-005 0.995808 0.0914691   
     length 1.97539   
     axis 0 0 0   XYZ
    dof rx ry rz
    limits (-20.0 45.0)
           (-30.0 30.0)
           (-30.0 30.0)
  end
  begin
     id 13 
     name thorax
     direction -0.016423 0.993627 0.111514   
     length 2.00349   
     axis 0 0 0   XYZ
    dof rx ry rz
    limits (-20.0 45.0)
           (-30.0 30.0)
           (-30.0 30.0)
  end
  begin
     id 14 
     name lowerneck
     direction -0.174763 0.981668 -0.0760716   
     length 1.71436   
     axis 0 0 0   XYZ
    dof rx ry rz
    limits (-20.0 45.0)
           (-30.0 30.0)
           (-30.0 30.0)
  end
  begin
     id 15 
     name upperneck
     direction 0.345458 0.934587 -0.0848868   
     length 1.72805   
     axis 0 0 0   XYZ
    dof rx ry rz
    limits (-20.0 45.0)
           (-30.0 30.0)
           (-30.0 30.0)
  end
  begin
     id 16
     name head
     direction 0.13001 0.989848 -0.0574291  
     length 1.767  
     axis 0 0 0   XYZ
    dof rx ry rz
    limits (-20.0 45.0)
           (-30.0 30.0)
           (-30.0 30.0)
  end
  begin
     id 17 
     name lclavicle
     direction 0.952951 0.290122 0.0878234  
     length 3.54654  
     axis 0 0 0   XYZ
    dof ry rz
    limits (-20.0 10.0)
           (0.0 20.0)
  end
  begin
     id 18 
     name lhumerus
     direction 1 -4.48957e-011 -4.56525e-028   
     length 5.19807   
     axis 180 -30 -90   XYZ
    dof rx ry rz
    limits (-60.0 90.0)
           (-90.0 90.0)
           (-90.0 90.0)
  end
  begin
     id 19
     name lradius
     direction 1 -4.48979e-011 -2.0317e-027   
     length 3.0937   
     axis 180 -30 -90   XYZ
    dof rx
    limits (-10.0 170.0)
  end
  begin
     id 20
     name lwrist
     direction 1 -4.48953e-011 -3.05809e-027   
     length 1.54685   
     axis 8.48514e-016 90 90   XYZ
    dof ry
    limits (-180.0 0.0)
 end
  begin
     id 21 
     name lhand
     direction 1 -4.48952e-011 -6.11639e-027   
     length 0.672632   
     axis 3.9013e-015 90 90   XYZ
    dof rx rz
    limits (-90.0 90.0)
           (-45.0 45.0)
  end
  begin
     id 22 
     name lfingers
     direction 1 -4.48925e-011 -1.22426e-026   
     length 0.542293   
     axis 7.80276e-015 90 90   XYZ
    dof rx
    limits (0.0 90.0)
  end
  begin
     id 23
     name lthumb
     direction 0.707107 -6.3486e-011 0.707107   
     length 0.778628   
     axis -90 45 5.37419e-014   XYZ
    dof rx rz
    limits (-45.0 45.0)
           (-45.0 45.0)
  end
  begin
     id 24 
     name rclavicle
     direction -0.960732 0.273675 -0.0457849   
     length 3.52079  
     axis 0 0 0   XYZ 
    dof ry rz
    limits (-10.0 20.0)
           (-20.0 0.0)
  end
  begin
     id 25 
     name rhumerus
     direction -1 -4.48976e-011 -1.63613e-027  
     length 5.45222   
     axis 180 30 90   XYZ
    dof rx ry rz
    limits (-90.0 60.0)
           (-90.0 90.0)
           (-90.0 90.0)
  end
  begin
     id 26 
     name rradius
     direction -1 -4.48957e-011 -7.00033e-028   
     length 3.01284   
     axis 180 30 90   XYZ
    dof rx
    limits (-10.0 170.0)
  end
  begin
     id 27 
     name rwrist
     direction -1 -4.48983e-011 -3.05543e-027   
     length 1.50642   
     axis 8.48514e-016 -90 -90   XYZ
    dof ry
    limits (-180.0 0.0)
  end
  begin
     id 28
     name rhand
     direction -1 -4.48984e-011 -6.11072e-027   
     length 0.622296   
     axis 3.9013e-015 -90 -90   XYZ
    dof rx rz
    limits (-90.0 90.0)
           (-45.0 45.0)
  end
  begin
     id 29
     name rfingers
     direction -1 -4.48865e-011 -1.22637e-026   
     length 0.501711   
     axis 7.80276e-015 -90 -90   XYZ
    dof rx
    limits (0.0 90.0)
  end
  begin
     id 30
     name rthumb
     direction -0.707107 -6.34932e-011 0.707107   
     length 0.72036   
     axis -90 -45 -5.37419e-014   XYZ
    dof rx rz
    limits (-45.0 45.0)
           (-45.0 45.0)
  end
:hierarchy
  begin
    root lhipjoint rhipjoint lowerback
    lhipjoint lfemur
    lfemur ltibia
    ltibia lfoot
    lfoot ltoes
    rhipjoint rfemur
    rfemur rtibia
    rtibia rfoot
    rfoot rtoes
    lowerback upperback
    upperback thorax
    thorax lowerneck lclavicle rclavicle
    lowerneck upperneck
    upperneck head
    lclavicle lhumerus
    lhumerus lradius
    lradius lwrist
    lwrist lhand lthumb
    lhand lfingers
    rclavicle rhumerus
    rhumerus rradius
    rradius rwrist
    rwrist rhand rthumb
    rhand rfingers
  end

#!OML:ASF H:\Not Pregnant\Project 1\Capture day 1\Session 1\non-pregnant.ASF
:FULLY-SPECIFIED
:DEGREES
231
root 2.97603 6.28913 25.8193 36.8785 -79.1856 -28.209
lowerback 52.4553 -0.747049 10.5864
upperback 7.81915 3.77806 3.8576
thorax -11.6231 0.656293 -2.10532
lowerneck 20.5076 -10.0415 -31.2102
upperneck -24.7715 -15.9148 40.1822
head -3.46094 -10.5136 22.2725
rclavicle 3.18055e-014 1.90833e-014
rhumerus 5.61955 -10.7935 -54.5361
rradius 24.7
rwrist 52.3463
rhand -48.027 9.40154
rfingers 7.12502
rthumb -20.6944 -19.5151
lclavicle 3.18055e-014 1.90833e-014
lhumerus 5.39239 -29.7621 62.5695
lradius 56.191
lwrist 32.6999
lhand -16.4183 -20.4377
lfingers 7.12502
lthumb 9.79661 9.31446
rfemur -106.998 7.418 38.6376
rtibia 152.777
rfoot -24.6336 18.0062
rtoes 5.90796
lfemur -127.897 41.7352 -29.4744
ltibia 147.044
lfoot -39.98 -35.4509
ltoes -28.8082
232
root 2.97446 6.27305 25.7721 34.4747 -79.0694 -25.8773
lowerback 52.4021 -0.897359 10.767
upperback 7.85998 3.67065 3.70617
thorax -11.5438 0.621561 -2.30472
lowerneck 20.5562 -10.106 -30.9716
upperneck -24.9847 -15.9055 40.2202
head -3.55209 -10.5362 22.2864
rclavicle -5.08889e-014 -1.19271e-014
rhumerus 5.16901 -11.1948 -54.556
rradius 24.7927
rwrist 52.5329
rhand -48.498 9.47474
rfingers 7.12502
rthumb -21.1469 -19.392
lclavicle -5.08889e-014 -1.19271e-014
lhumerus 5.11466 -29.6723 62.1199
lradius 56.6937
lwrist 32.5289
lhand -15.8092 -20.4772
lfingers 7.12502
lthumb 10.3842 9.24639
rfemur -107.152 8.01576 38.2818
rtibia 152.943
rfoot -24.3425 18.1097
rtoes 6.70811
lfemur -127.771 41.5107 -29.3902
ltibia 146.937
lfoot -40.0237 -35.496
ltoes -29.1649
233
root 2.97175 6.25352 25.7243 32.089 -78.9305 -23.5829
lowerback 52.3407 -1.02208 10.9147
upperback 7.90693 3.57978 3.59465
thorax -11.4629 0.593355 -2.45346
lowerneck 20.6043 -10.1736 -30.7549
upperneck -25.1989 -15.9076 40.2502
head -3.63765 -10.562 22.2965
rclavicle 6.20208e-014 1.59028e-014
rhumerus 4.74625 -11.5772 -54.5528
rradius 24.8634
rwrist 52.6633
rhand -49.0047 9.57697
rfingers 7.12502
rthumb -21.6336 -19.2345
lclavicle 6.20208e-014 1.59028e-014
lhumerus 4.83379 -29.5844 61.696
lradius 57.1689
lwrist 32.4296
lhand -15.313 -20.4766
lfingers 7.12502
lthumb 10.8628 9.22245
rfemur -107.311 8.61412 37.9958
rtibia 153.139
rfoot -24.1009 18.0888
rtoes 7.35847
lfemur -127.671 41.3335 -29.326
ltibia 146.852
lfoot -40.0999 -35.5658
ltoes -29.5404
234
root 2.96805 6.23076 25.6757 29.7326 -78.768 -21.3375
lowerback 52.2743 -1.11107 10.9993
upperback 7.96258 3.50455 3.54804
thorax -11.3825 0.570427 -2.51022
lowerneck 20.6379 -10.2381 -30.5824
upperneck -25.4132 -15.9182 40.2559
head -3.71623 -10.5842 22.2964
rclavicle 4.45278e-014 2.3059e-014
rhumerus 4.37716 -11.8784 -54.5025
rradius 24.909
rwrist 52.7132
rhand -49.5257 9.68873
rfingers 7.12502
rthumb -22.1338 -19.0643
lclavicle 4.45278e-014 2.3059e-014
lhumerus 4.53031 -29.4565 61.3301
lradius 57.5951
lwrist 32.3633
lhand -14.8688 -20.47
lfingers 7.12502
lthumb 11.2913 9.20605
rfemur -107.467 9.23014 37.777
rtibia 153.359
rfoot -23.9307 17.9229
rtoes 7.80199
lfemur -127.594 41.2009 -29.2775
ltibia 146.789
lfoot -40.2048 -35.6593
ltoes -29.9347
235
root 2.96337 6.205 25.6261 27.3789 -78.5831 -19.1081
lowerback 52.2113 -1.14864 11.0977
upperback 8.01079 3.5023 3.51678
thorax -11.3063 0.57861 -2.58888
lowerneck 20.7357 -10.3509 -30.3076
upperneck -25.6787 -15.9699 40.2448
head -3.8182 -10.6369 22.2704
rclavicle -3.65764e-014 -1.59028e-015
rhumerus 3.92253 -12.3098 -54.4045
rradius 24.924
rwrist 52.7397
rhand -50.0519 9.81607
rfingers 7.12502
rthumb -22.6389 -18.8762
lclavicle -3.65764e-014 -1.59028e-015
lhumerus 4.34204 -29.5034 60.923
lradius 57.983
lwrist 32.3706
lhand -14.4756 -20.4273
lfingers 7.12502
lthumb 11.6705 9.22765
rfemur -107.625 9.85094 37.6081
rtibia 153.602
rfoot -23.8188 17.6529
rtoes 8.09219
lfemur -127.539 41.0941 -29.2459
ltibia 146.743
lfoot -40.3247 -35.7632
ltoes -30.3274
236
root 2.95784 6.17652 25.5755 25.0317 -78.3751 -16.8981
lowerback 52.1405 -1.13751 11.1174
upperback 8.06744 3.52449 3.56133
thorax -11.2317 0.59574 -2.56091
lowerneck 20.8231 -10.4605 -30.0775
upperneck -25.9503 -16.0311 40.2005
head -3.91692 -10.6852 22.231
rclavicle 4.92986e-014 -1.59028e-015
rhumerus 3.51762 -12.6736 -54.2513
rradius 24.8985
rwrist 52.7248
rhand -50.5599 9.93465
rfingers 7.12502
rthumb -23.1264 -18.6973
lclavicle 4.92986e-014 -1.59028e-015
lhumerus 4.14782 -29.5182 60.5782
lradius 58.2943
lwrist 32.3635
lhand -14.107 -20.4135
lfingers 7.12502
lthumb 12.0259 9.22101
rfemur -107.79 10.4672 37.4631
rtibia 153.867
rfoot -23.7277 17.3475
rtoes 8.38016
lfemur -127.501 41.011 -29.2291
ltibia 146.711
lfoot -40.458 -35.886
ltoes -30.7191
237
root 2.95169 6.14559 25.5237 22.6656 -78.1508 -14.6825
lowerback 52.0703 -1.09206 11.0626
upperback 8.12965 3.55459 3.65915
thorax -11.1624 0.615104 -2.44535
lowerneck 20.8879 -10.5604 -29.8891
upperneck -26.2128 -16.0912 40.1267
head -4.01001 -10.7236 22.1792
rclavicle 3.33958e-014 1.27222e-014
rhumerus 3.176 -13.0281 -54.0938
rradius 24.8165
rwrist 52.7422
rhand -51.041 10.0094
rfingers 7.12502
rthumb -23.5879 -18.5639
lclavicle 3.33958e-014 1.27222e-014
lhumerus 3.94918 -29.5079 60.2586
lradius 58.5355
lwrist 32.357
lhand -13.7547 -20.4395
lfingers 7.12502
lthumb 12.3656 9.17477
rfemur -107.956 11.0832 37.3359
rtibia 154.152
rfoot -23.6742 16.9933
rtoes 8.55743
lfemur -127.472 40.9495 -29.227
ltibia 146.688
lfoot -40.6026 -36.0335
ltoes -31.0932
238
root 2.9449 6.11242 25.4707 20.2897 -77.8991 -12.4673
lowerback 51.9923 -1.07122 10.9916
upperback 8.19576 3.545 3.75071
thorax -11.0914 0.617946 -2.31229
lowerneck 20.9163 -10.6382 -29.7442
upperneck -26.436 -16.1327 40.0514
head -4.08878 -10.7464 22.1304
rclavicle -1.43125e-014 2.14687e-014
rhumerus 2.88409 -13.2843 -53.9847
rradius 24.6992
rwrist 52.7123
rhand -51.4929 9.92098
rfingers 7.12502
rthumb -24.0213 -18.5959
lclavicle -1.43125e-014 2.14687e-014
lhumerus 3.75011 -29.4861 59.8738
lradius 58.7265
lwrist 32.3867
lhand -13.4626 -20.4673
lfingers 7.12502
lthumb 12.6473 9.12981
rfemur -108.123 11.689 37.2255
rtibia 154.449
rfoot -23.6483 16.6035
rtoes 8.69263
lfemur -127.448 40.8847 -29.2245
ltibia 146.672
lfoot -40.7421 -36.2043
ltoes -31.4543
239
root 2.93754 6.07725 25.4166 17.9008 -77.6242 -10.2472
lowerback 51.9067 -1.08622 10.8662
upperback 8.26827 3.46347 3.8489
thorax -11.0226 0.589777 -2.11654
lowerneck 20.8717 -10.6606 -29.7313
upperneck -26.5819 -16.136 39.9849
head -4.13181 -10.7356 22.1022
rclavicle 3.81667e-014 7.95139e-015
rhumerus 2.70986 -13.3953 -53.9608
rradius 24.5412
rwrist 52.6724
rhand -51.9495 9.69681
rfingers 7.12502
rthumb -24.4591 -18.7616
lclavicle 3.81667e-014 7.95139e-015
lhumerus 3.48311 -29.3722 59.4569
lradius 58.8713
lwrist 32.4662
lhand -13.2759 -20.4957
lfingers 7.12502
lthumb 12.8272 9.0902
rfemur -108.294 12.2887 37.1257
rtibia 154.756
rfoot -23.6387 16.203
rtoes 8.79422
lfemur -127.43 40.8221 -29.2428
ltibia 146.66
lfoot -40.8861 -36.3899
ltoes -31.8034
240
root 2.9297 6.04041 25.3613 15.579 -77.3254 -8.09658
lowerback 51.8075 -1.14657 10.7131
upperback 8.34718 3.31021 3.94127
thorax -10.9504 0.53085 -1.88358
lowerneck 20.7573 -10.6279 -29.8446
upperneck -26.6513 -16.0986 39.9357
head -4.1399 -10.6917 22.0992
rclavicle -6.36111e-015 9.54166e-015
rhumerus 2.65534 -13.4626 -54.0488
rradius 24.335
rwrist 52.7108
rhand -52.4592 9.30649
rfingers 7.12502
rthumb -24.9477 -19.085
lclavicle -6.36111e-015 9.54166e-015
lhumerus 3.16325 -29.1906 58.9837
lradius 58.9791
lwrist 32.6008
lhand -13.1947 -20.4785
lfingers 7.12502
lthumb 12.9055 9.10244
rfemur -108.466 12.8905 37.0554
rtibia 155.064
rfoot -23.6372 15.7976
rtoes 8.89475
lfemur -127.432 40.773 -29.2731
ltibia 146.651
lfoot -41.0348 -36.5995
ltoes -32.1523
241
root 2.92144 6.00234 25.3048 13.3424 -77.0041 -6.02802
lowerback 51.6951 -1.20723 10.5158
upperback 8.43064 3.13595 4.06482
thorax -10.8779 0.461802 -1.58823
lowerneck 20.6068 -10.5605 -30.0616
upperneck -26.6831 -16.0441 39.8882
head -4.1259 -10.6282 22.1116
rclavicle 6.99722e-014 2.3059e-014
rhumerus 2.66828 -13.4742 -54.161
rradius 24.1036
rwrist 52.7678
rhand -53.0573 8.78046
rfingers 7.12502
rthumb -25.5206 -19.5303
lclavicle 6.99722e-014 2.3059e-014
lhumerus 2.82759 -28.9896 58.5046
lradius 59.0335
lwrist 32.7721
lhand -13.1946 -20.4258
lfingers 7.12502
lthumb 12.9056 9.15518
rfemur -108.651 13.4931 37.0012
rtibia 155.371
rfoot -23.6171 15.4221
rtoes 9.07103
lfemur -127.463 40.7417 -29.3069
ltibia 146.641
lfoot -41.1882 -36.8454
ltoes -32.5048
